<?xml version="1.0" standalone="no"?>
<!DOCTYPE svg PUBLIC "-//W3C//DTD SVG 20010904//EN"
 "http://www.w3.org/TR/2001/REC-SVG-20010904/DTD/svg10.dtd">
<svg version="1.0" xmlns="http://www.w3.org/2000/svg"
 width="512.000000pt" height="512.000000pt" viewBox="0 0 512.000000 512.000000"
 preserveAspectRatio="xMidYMid meet">
<metadata>
Created by potrace 1.11, written by Peter Selinger 2001-2013
</metadata>
<g transform="translate(0.000000,512.000000) scale(0.100000,-0.100000)"
fill="#000000" stroke="none">
<path d="M1082 4275 c-59 -18 -124 -58 -162 -101 -88 -101 -103 -224 -39 -329
37 -61 64 -84 82 -66 7 7 6 23 -2 53 -19 69 -20 85 -10 121 21 76 93 128 167
122 135 -11 209 -78 266 -242 80 -227 111 -288 179 -354 36 -35 135 -86 185
-95 17 -3 32 -8 32 -10 0 -2 -15 -35 -34 -74 -136 -278 -374 -422 -560 -337
-100 46 -176 148 -178 239 -1 85 47 154 138 199 42 21 62 24 147 23 84 -1 97
1 97 15 0 19 -87 75 -152 99 -24 8 -77 15 -118 16 -62 0 -85 -4 -130 -26 -30
-15 -64 -35 -75 -45 -60 -54 -125 -160 -141 -230 -11 -47 -12 -161 -3 -206 55
-257 330 -464 624 -469 148 -3 243 20 380 89 92 47 119 54 141 38 48 -35 -57
-173 -206 -271 -240 -158 -340 -275 -380 -443 -16 -68 -7 -170 20 -225 11 -23
61 -98 111 -167 131 -179 156 -238 147 -352 -7 -82 -23 -112 -70 -136 -37 -18
-57 -19 -115 -6 -41 9 -38 -17 6 -56 50 -45 107 -57 177 -40 111 28 211 134
231 246 24 131 -12 250 -153 507 -58 107 -50 178 30 251 34 31 235 132 244
122 3 -3 7 -16 9 -28 23 -156 113 -318 235 -422 l59 -50 -86 -79 c-182 -167
-234 -267 -231 -438 3 -111 28 -179 87 -232 95 -86 259 -70 359 35 36 38 71
122 56 136 -3 4 -16 -3 -29 -14 -82 -76 -180 -72 -239 8 -38 52 -25 144 27
199 30 31 182 128 288 184 l69 36 76 -41 c43 -23 89 -50 104 -60 14 -11 29
-19 32 -19 9 0 106 -68 134 -94 56 -50 74 -145 38 -198 -32 -47 -68 -69 -112
-70 -42 0 -110 29 -133 56 -41 49 -41 -12 0 -82 51 -90 147 -138 256 -129 110
8 177 71 209 196 30 118 5 253 -66 357 -33 48 -141 161 -208 217 l-32 27 69
66 c68 64 128 143 163 214 22 47 58 166 58 195 0 13 4 26 9 30 15 9 180 -61
238 -101 102 -70 113 -148 42 -292 -66 -135 -87 -186 -104 -252 -44 -169 -17
-292 85 -384 65 -58 116 -80 191 -81 71 0 114 20 153 72 24 33 8 43 -45 29
-60 -16 -116 7 -142 58 -38 74 -32 205 14 291 12 21 54 89 94 150 113 171 120
187 122 283 4 181 -97 338 -301 470 -216 138 -255 171 -295 247 -25 48 -27 71
-4 83 21 12 51 3 148 -46 93 -47 163 -69 249 -79 161 -18 296 6 435 77 132 67
238 186 291 325 35 92 36 222 2 306 -97 245 -304 331 -517 215 -69 -37 -85
-50 -85 -68 0 -15 9 -17 79 -13 141 7 236 -39 288 -139 22 -43 20 -123 -6
-174 -26 -51 -99 -124 -147 -147 -142 -67 -334 4 -469 174 -38 47 -135 216
-135 235 0 3 17 8 38 12 61 11 144 56 192 105 58 59 91 120 145 273 51 145 72
189 114 234 55 59 174 94 240 71 42 -15 89 -66 101 -110 12 -42 5 -115 -12
-136 -13 -16 0 -53 18 -53 16 0 70 70 92 120 34 79 7 209 -60 281 -149 162
-414 157 -587 -12 -66 -64 -104 -121 -157 -235 -44 -95 -98 -176 -133 -201
-10 -7 -41 -15 -69 -17 -58 -5 -88 12 -139 78 -119 152 -250 237 -418 271
-134 27 -307 12 -412 -36 -24 -10 -45 -19 -48 -19 -4 0 -32 -17 -63 -39 -67
-45 -117 -94 -180 -174 -55 -70 -83 -86 -139 -81 -55 4 -75 15 -116 66 -34 43
-41 56 -107 193 -45 93 -64 120 -131 185 -121 119 -284 167 -427 125z m1298
-1040 c47 -50 12 -135 -56 -135 -36 0 -75 34 -81 69 -3 25 20 77 39 84 34 14
75 6 98 -18z m469 8 c11 -10 23 -34 26 -54 7 -46 -29 -89 -75 -89 -45 0 -91
47 -84 86 12 65 85 96 133 57z m-231 -833 c69 -54 101 -99 119 -167 36 -136
10 -244 -81 -334 -65 -64 -89 -76 -121 -59 -43 23 -115 103 -141 157 -45 91
-32 241 27 322 28 39 122 121 139 121 5 0 31 -18 58 -40z"/>
</g>
</svg>
